<svg width="31" height="27" viewBox="0 0 31 27" fill="none" xmlns="http://www.w3.org/2000/svg">
<path d="M4.75208 22.198C3.79208 22.198 3.03008 21.994 2.46608 21.586C1.90208 21.178 1.49408 20.602 1.24208 19.858C1.00208 19.102 0.88208 18.214 0.88208 17.194V12.298C0.88208 11.254 1.00208 10.354 1.24208 9.598C1.48208 8.842 1.90208 8.266 2.50208 7.87C3.11408 7.462 3.95408 7.258 5.02208 7.258C6.01808 7.258 6.81008 7.426 7.39808 7.762C7.98608 8.098 8.40608 8.584 8.65808 9.22C8.92208 9.844 9.05408 10.606 9.05408 11.506V12.262H6.51608V11.434C6.51608 10.966 6.48008 10.564 6.40808 10.228C6.34808 9.892 6.21608 9.64 6.01208 9.472C5.82008 9.292 5.50208 9.202 5.05808 9.202C4.59008 9.202 4.24808 9.316 4.03208 9.544C3.82808 9.772 3.69608 10.072 3.63608 10.444C3.58808 10.816 3.56408 11.224 3.56408 11.668V17.77C3.56408 18.274 3.60608 18.712 3.69008 19.084C3.77408 19.456 3.93008 19.744 4.15808 19.948C4.38608 20.14 4.71008 20.236 5.13008 20.236C5.56208 20.236 5.89208 20.128 6.12008 19.912C6.34808 19.696 6.50408 19.396 6.58808 19.012C6.68408 18.628 6.73208 18.172 6.73208 17.644V16.276H5.16608V14.602H9.12608V22H7.41608L7.21808 20.56C7.02608 21.04 6.73208 21.436 6.33608 21.748C5.95208 22.048 5.42408 22.198 4.75208 22.198Z" fill="#F4F4F4"/>
<path d="M24.33 22L21.396 7.41998H23.754L25.68 17.734L27.48 7.41998H29.892L26.958 22H24.33Z" fill="#F4F4F4"/>
<path d="M21.8094 14.0865C21.7816 14.0122 21.7317 13.9481 21.6666 13.9029C21.6014 13.8576 21.5239 13.8334 21.4446 13.8333H16.7488L19.4574 8.567C19.488 8.5077 19.5029 8.4415 19.5006 8.37478C19.4982 8.30806 19.4787 8.24307 19.4439 8.18608C19.4091 8.1291 19.3602 8.08204 19.302 8.04944C19.2437 8.01685 19.178 7.99982 19.1113 8C19.018 8.00004 18.9279 8.03358 18.8573 8.0945L16.0001 10.562L10.3018 15.4834C10.2417 15.5352 10.1989 15.6042 10.1792 15.681C10.1595 15.7579 10.1637 15.8389 10.1913 15.9133C10.219 15.9876 10.2687 16.0518 10.3338 16.097C10.3989 16.1423 10.4764 16.1666 10.5557 16.1667H15.2515L12.5429 21.433C12.5122 21.4923 12.4974 21.5585 12.4997 21.6252C12.5021 21.6919 12.5216 21.7569 12.5564 21.8139C12.5912 21.8709 12.6401 21.918 12.6983 21.9506C12.7566 21.9832 12.8223 22.0002 12.889 22C12.9823 22 13.0724 21.9664 13.143 21.9055L16.0001 19.438L21.6985 14.5166C21.7587 14.4648 21.8016 14.3958 21.8214 14.3189C21.8412 14.242 21.837 14.1609 21.8094 14.0865Z" fill="#2FDBBC"/>
</svg>
