<svg width="158" height="47" viewBox="0 0 158 47" fill="none" xmlns="http://www.w3.org/2000/svg">
<path d="M8.25071 38.641C6.5839 38.641 5.26087 38.2859 4.28161 37.5756C3.30236 36.8654 2.59397 35.8628 2.15643 34.5676C1.73972 33.2516 1.53137 31.7059 1.53137 29.9303V21.4076C1.53137 19.5903 1.73972 18.0236 2.15643 16.7076C2.57313 15.3916 3.30236 14.389 4.34412 13.6996C5.40671 12.9894 6.86517 12.6343 8.7195 12.6343C10.4488 12.6343 11.8239 12.9268 12.8449 13.5116C13.8658 14.0965 14.595 14.9425 15.0326 16.0496C15.4909 17.1359 15.7201 18.4623 15.7201 20.029V21.345H11.3135V19.9036C11.3135 19.089 11.251 18.3892 11.126 17.8043C11.0218 17.2194 10.7926 16.7808 10.4384 16.4883C10.105 16.175 9.55291 16.0183 8.78201 16.0183C7.96944 16.0183 7.37564 16.2168 7.0006 16.6136C6.64641 17.0105 6.41722 17.5328 6.31304 18.1803C6.2297 18.8279 6.18803 19.5381 6.18803 20.311V30.933C6.18803 31.8103 6.26096 32.5728 6.4068 33.2203C6.55265 33.8679 6.8235 34.3692 7.21937 34.7243C7.61524 35.0585 8.17779 35.2256 8.90702 35.2256C9.65709 35.2256 10.2301 35.0376 10.6259 34.6616C11.0218 34.2856 11.2926 33.7634 11.4385 33.095C11.6052 32.4265 11.6885 31.6328 11.6885 30.7136V28.3323H8.96953V25.4183H15.8451V38.2963H12.8761L12.5323 35.7896C12.199 36.6252 11.6885 37.3145 11.001 37.8576C10.3342 38.3799 9.41748 38.641 8.25071 38.641ZM19.489 38.2963V12.9163H24.0519V38.2963H19.489ZM34.315 38.641C32.6482 38.641 31.3251 38.2859 30.3459 37.5756C29.3666 36.8654 28.6582 35.8628 28.2207 34.5676C27.804 33.2516 27.5956 31.7059 27.5956 29.9303V21.4076C27.5956 19.5903 27.804 18.0236 28.2207 16.7076C28.6374 15.3916 29.3666 14.389 30.4084 13.6996C31.471 12.9894 32.9294 12.6343 34.7838 12.6343C36.5131 12.6343 37.8882 12.9268 38.9091 13.5116C39.9301 14.0965 40.6593 14.9425 41.0968 16.0496C41.5552 17.1359 41.7844 18.4623 41.7844 20.029V21.345H37.3778V19.9036C37.3778 19.089 37.3153 18.3892 37.1902 17.8043C37.0861 17.2194 36.8569 16.7808 36.5027 16.4883C36.1693 16.175 35.6172 16.0183 34.8463 16.0183C34.0337 16.0183 33.4399 16.2168 33.0649 16.6136C32.7107 17.0105 32.4815 17.5328 32.3773 18.1803C32.294 18.8279 32.2523 19.5381 32.2523 20.311V30.933C32.2523 31.8103 32.3252 32.5728 32.4711 33.2203C32.6169 33.8679 32.8878 34.3692 33.2836 34.7243C33.6795 35.0585 34.2421 35.2256 34.9713 35.2256C35.7214 35.2256 36.2943 35.0376 36.6902 34.6616C37.0861 34.2856 37.3569 33.7634 37.5028 33.095C37.6694 32.4265 37.7528 31.6328 37.7528 30.7136V28.3323H35.0338V25.4183H41.9094V38.2963H38.9404L38.5966 35.7896C38.2632 36.6252 37.7528 37.3145 37.0652 37.8576C36.3985 38.3799 35.4818 38.641 34.315 38.641Z" fill="#2D2D2D"/>
<path d="M70.0235 38.2963L64.9293 12.9163H69.0234L72.3675 30.8703L75.4927 12.9163H79.6806L74.5864 38.2963H70.0235ZM82.263 38.2963V12.9163H92.8889V16.175H86.8884V23.4756H91.6075V26.703H86.8884V35.1003H92.9514V38.2963H82.263ZM95.6308 38.2963V12.9163H98.8498L105.007 27.3923V12.9163H108.819V38.2963H105.757L99.5686 23.131V38.2963H95.6308ZM119.599 38.641C117.724 38.641 116.266 38.2963 115.224 37.607C114.182 36.9176 113.463 35.9359 113.067 34.6616C112.672 33.3874 112.474 31.8625 112.474 30.087V12.9163H116.974V30.6196C116.974 31.4134 117.026 32.1654 117.13 32.8756C117.234 33.565 117.474 34.129 117.849 34.5676C118.245 34.9854 118.828 35.1943 119.599 35.1943C120.412 35.1943 120.995 34.9854 121.349 34.5676C121.724 34.129 121.964 33.565 122.068 32.8756C122.193 32.1654 122.256 31.4134 122.256 30.6196V12.9163H126.725V30.087C126.725 31.8625 126.527 33.3874 126.131 34.6616C125.735 35.9359 125.016 36.9176 123.975 37.607C122.954 38.2963 121.495 38.641 119.599 38.641ZM130.363 38.2963V12.9163H140.989V16.175H134.988V23.4756H139.707V26.703H134.988V35.1003H141.051V38.2963H130.363ZM150.106 38.641C148.585 38.641 147.314 38.3485 146.293 37.7636C145.272 37.1579 144.502 36.2805 143.981 35.1316C143.46 33.9828 143.168 32.5728 143.106 30.9016L147.075 30.1183C147.116 31.1001 147.231 31.967 147.419 32.719C147.627 33.471 147.929 34.0559 148.325 34.4736C148.742 34.8705 149.283 35.069 149.95 35.069C150.7 35.069 151.231 34.8496 151.544 34.411C151.856 33.9514 152.013 33.377 152.013 32.6876C152.013 31.5805 151.763 30.6719 151.263 29.9616C150.763 29.2514 150.096 28.5412 149.262 27.831L146.075 25.011C145.179 24.2381 144.46 23.3816 143.918 22.4416C143.397 21.4808 143.137 20.3005 143.137 18.901C143.137 16.8956 143.72 15.3499 144.887 14.2636C146.054 13.1774 147.648 12.6343 149.669 12.6343C150.856 12.6343 151.846 12.8223 152.638 13.1983C153.429 13.5534 154.055 14.0548 154.513 14.7023C154.992 15.3499 155.346 16.0914 155.575 16.927C155.805 17.7416 155.951 18.6085 156.013 19.5276L152.075 20.217C152.034 19.4232 151.94 18.713 151.794 18.0863C151.669 17.4596 151.429 16.9688 151.075 16.6136C150.742 16.2585 150.242 16.081 149.575 16.081C148.887 16.081 148.356 16.3108 147.981 16.7703C147.627 17.209 147.45 17.7625 147.45 18.431C147.45 19.2874 147.627 19.9976 147.981 20.5616C148.335 21.1048 148.846 21.6688 149.512 22.2536L152.669 25.0423C153.711 25.9196 154.596 26.9536 155.325 28.1443C156.076 29.3141 156.451 30.7345 156.451 32.4056C156.451 33.6172 156.18 34.693 155.638 35.633C155.117 36.573 154.377 37.3145 153.419 37.8576C152.481 38.3799 151.377 38.641 150.106 38.641Z" fill="#2D2D2D"/>
<path d="M63.9105 24.521C63.8622 24.3916 63.7757 24.28 63.6625 24.2014C63.5493 24.1225 63.4149 24.0804 63.2771 24.0802H55.1239L59.8268 14.9129C59.8801 14.8097 59.9059 14.6945 59.9018 14.5783C59.8976 14.4622 59.8637 14.3491 59.8033 14.2499C59.7431 14.1507 59.6582 14.0687 59.5569 14.012C59.4557 13.9553 59.3418 13.9256 59.2258 13.9259C59.064 13.926 58.9074 13.9844 58.7848 14.0904L53.8242 18.3857L43.9302 26.9526C43.8259 27.0428 43.7517 27.1629 43.7174 27.2966C43.6832 27.4304 43.6904 27.5714 43.7385 27.7009C43.7865 27.8303 43.8728 27.9419 43.986 28.0207C44.099 28.0996 44.2334 28.1419 44.3711 28.142H52.5244L47.8215 37.3093C47.7682 37.4125 47.7424 37.5278 47.7465 37.6439C47.7505 37.76 47.7844 37.8731 47.8448 37.9724C47.9052 38.0716 47.9901 38.1536 48.0914 38.2103C48.1924 38.2671 48.3065 38.2967 48.4225 38.2963C48.5843 38.2963 48.7407 38.2378 48.8633 38.1318L53.8242 33.8365L63.7181 25.2696C63.8224 25.1795 63.8969 25.0594 63.9313 24.9255C63.9657 24.7916 63.9584 24.6505 63.9105 24.521Z" fill="#2D2D2D"/>
</svg>
