<svg width="13" height="13" viewBox="0 0 13 13" fill="none" xmlns="http://www.w3.org/2000/svg">
<path d="M4.59767 5.54811C5.27535 6.73868 6.26132 7.72465 7.45189 8.40233L8.09033 7.50822C8.193 7.36445 8.34481 7.2633 8.51703 7.22391C8.68924 7.18451 8.86993 7.20961 9.02489 7.29444C10.0463 7.85267 11.1744 8.18839 12.3348 8.27956C12.516 8.29391 12.685 8.376 12.8083 8.50945C12.9316 8.64291 13 8.81793 13 8.99961V12.2222C13 12.401 12.9337 12.5735 12.8139 12.7062C12.6941 12.839 12.5293 12.9225 12.3514 12.9408C11.9687 12.9805 11.583 13 11.1944 13C5.01222 13 0 7.98778 0 1.80556C0 1.417 0.0195 1.03133 0.0592222 0.648556C0.0774617 0.47067 0.161044 0.305876 0.293793 0.186069C0.426541 0.0662619 0.599015 -3.85362e-05 0.777833 1.68041e-08H4.00039C4.18207 -2.27634e-05 4.35709 0.0684317 4.49055 0.191714C4.624 0.314997 4.70609 0.48405 4.72044 0.665167C4.81161 1.82563 5.14733 2.95366 5.70555 3.97511C5.79039 4.13007 5.81549 4.31076 5.77609 4.48297C5.7367 4.65519 5.63555 4.807 5.49178 4.90967L4.59767 5.54811ZM2.77622 5.07361L4.14844 4.09356C3.75901 3.25296 3.4922 2.36083 3.35617 1.44444H1.45167C1.44733 1.56433 1.44517 1.68494 1.44517 1.80556C1.44444 7.19044 5.80956 11.5556 11.1944 11.5556C11.3151 11.5556 11.4357 11.5534 11.5556 11.5483V9.64383C10.6392 9.5078 9.74704 9.24099 8.90644 8.85155L7.92639 10.2238C7.53181 10.0705 7.14856 9.88946 6.7795 9.68211L6.73761 9.65828C5.32103 8.85207 4.14792 7.67897 3.34172 6.26239L3.31789 6.2205C3.11054 5.85144 2.92954 5.46819 2.77622 5.07361Z" fill="#707070"/>
</svg>
