<svg width="28" height="18" viewBox="0 0 28 18" fill="none" xmlns="http://www.w3.org/2000/svg">
<g clipPath="url(#clip0_181_1610)">
<path d="M13.4138 8.89631L7.21967 2.69734C6.99105 2.46856 6.62335 2.46856 6.39498 2.69734L0.200291 8.89631C0.0310538 9.06581 -0.0205196 9.32203 0.0698403 9.54511C0.1602 9.7684 0.374726 9.91396 0.61287 9.91396H2.01939L2.01917 15.4401H3.19298L3.1932 9.31929C3.19298 8.99082 2.93013 8.72474 2.60618 8.72453H2.04236L6.8072 3.95599L11.5721 8.72453H11.0082C10.6841 8.72474 10.4214 8.99082 10.4212 9.31929V15.4401H11.595L11.5952 9.91396H13.0016C13.2398 9.91396 13.4543 9.7684 13.5446 9.54511C13.635 9.32203 13.5834 9.06581 13.4142 8.89631H13.4138Z" fill="#707070"/>
<path d="M8.8989 10.3132H5.81845C5.49426 10.3132 5.23145 10.5794 5.23145 10.9078V15.4401H6.40524V11.5026H8.3119V15.4401H9.4857V10.9078C9.4857 10.5796 9.22309 10.3132 8.8989 10.3132Z" fill="#707070"/>
<path d="M27.7936 12.5064L26.6061 10.6626L26.6059 10.6624C26.7775 10.4674 26.8809 10.2206 26.9001 9.95999C26.9195 9.6996 26.8536 9.43988 26.7127 9.22118L25.5213 7.37119C25.6906 7.17601 25.7922 6.93013 25.8106 6.67083C25.8288 6.41175 25.7629 6.15356 25.6228 5.936L23.7737 3.06509L23.7739 3.06487C23.557 2.72829 23.1874 2.52542 22.7908 2.52542C22.394 2.52542 22.0244 2.72829 21.8076 3.06487L19.9586 5.936C19.8186 6.15356 19.7525 6.41175 19.771 6.67083C19.7891 6.93013 19.8908 7.17601 20.06 7.37123L18.8686 9.22118H18.8688C18.728 9.43984 18.6621 9.6996 18.6814 9.96003C18.7005 10.2206 18.8038 10.4674 18.9754 10.6624L17.788 12.5062V12.5064C17.6331 12.7468 17.5694 13.0358 17.6083 13.3201C17.6474 13.6045 17.7865 13.8651 18.0001 14.0534C18.2138 14.242 18.4877 14.3459 18.771 14.3459H22.2036V15.4404L23.3776 15.4402V14.3457H26.8102V14.3459C27.0936 14.3459 27.3673 14.242 27.581 14.0534C27.7949 13.8651 27.934 13.6045 27.973 13.3201C28.012 13.0358 27.9483 12.7469 27.7934 12.5064H27.7936ZM18.7715 13.1565L20.8872 9.87129L19.8521 9.87108L21.9679 6.58589H20.9421L22.7911 3.71478L24.6401 6.58589H23.6141L25.7299 9.87108H24.695L26.8108 13.1565H18.7715Z" fill="#707070"/>
<path d="M12.6011 17.5565L18.9438 0L20.0462 0.40881L13.7034 17.9653L12.6011 17.5565Z" fill="#707070"/>
</g>
<defs>
<clipPath id="clip0_181_1610">
<rect width="28" height="18" fill="white"/>
</clipPath>
</defs>
</svg>
