<svg width="14" height="13" viewBox="0 0 14 13" fill="none" xmlns="http://www.w3.org/2000/svg">
<path d="M0.7 0H13.3C13.4857 0 13.6637 0.076091 13.795 0.211534C13.9263 0.346977 14 0.530677 14 0.722222V12.2778C14 12.4693 13.9263 12.653 13.795 12.7885C13.6637 12.9239 13.4857 13 13.3 13H0.7C0.514348 13 0.336301 12.9239 0.205025 12.7885C0.0737498 12.653 0 12.4693 0 12.2778V0.722222C0 0.530677 0.0737498 0.346977 0.205025 0.211534C0.336301 0.076091 0.514348 0 0.7 0ZM12.6 3.06078L7.0504 8.18856L1.4 3.04489V11.5556H12.6V3.06078ZM1.7577 1.44444L7.0427 6.25589L12.2514 1.44444H1.7577Z" fill="#707070"/>
</svg>
