<svg width="18" height="18" viewBox="0 0 18 18" fill="none" xmlns="http://www.w3.org/2000/svg">
<path d="M0.165771 12.201C0.570957 12.7139 1.01989 13.1907 1.50752 13.626C1.50602 13.5833 1.50002 13.5428 1.50002 13.5C1.50295 12.7388 1.73613 11.9963 2.1689 11.3701C2.60167 10.7439 3.21378 10.2633 3.92477 9.9915C4.05554 9.94202 4.16987 9.85698 4.25487 9.74597C4.33987 9.63496 4.39214 9.50239 4.40579 9.36325C4.41944 9.2241 4.39392 9.08391 4.33212 8.9585C4.27031 8.83308 4.17468 8.72744 4.05602 8.6535C3.73176 8.45317 3.46438 8.17293 3.27947 7.83964C3.09457 7.50634 2.99835 7.13115 3.00002 6.75C2.99839 6.31305 3.12452 5.88516 3.36292 5.51897C3.60131 5.15277 3.94155 4.86426 4.34178 4.68893C4.74202 4.5136 5.18477 4.4591 5.61558 4.53214C6.04638 4.60517 6.44644 4.80255 6.76652 5.1C7.23537 4.83088 7.74922 4.64918 8.28302 4.56375C7.99044 4.15499 7.61857 3.80931 7.18958 3.5473C6.76058 3.2853 6.28323 3.11232 5.78597 3.03869C5.28871 2.96506 4.78172 2.99227 4.29521 3.11872C3.80869 3.24516 3.3526 3.46824 2.95412 3.77467C2.55564 4.0811 2.22291 4.4646 1.97577 4.90233C1.72863 5.34006 1.57213 5.82307 1.5156 6.32256C1.45907 6.82205 1.50366 7.32781 1.64671 7.8097C1.78976 8.29159 2.02836 8.73976 2.34827 9.1275C1.26887 9.8501 0.492261 10.9438 0.165771 12.201ZM17.8343 12.201C17.5081 10.9432 16.7315 9.84896 15.6518 9.126C15.9706 8.73815 16.2083 8.29014 16.3505 7.80862C16.4928 7.32709 16.5368 6.82187 16.4799 6.323C16.423 5.82413 16.2664 5.34179 16.0194 4.90466C15.7724 4.46752 15.44 4.08452 15.042 3.77841C14.644 3.4723 14.1885 3.24934 13.7026 3.12278C13.2167 2.99622 12.7103 2.96865 12.2136 3.0417C11.7168 3.11476 11.2398 3.28694 10.8109 3.54803C10.3821 3.80912 10.01 4.15377 9.71702 4.5615C10.2508 4.6469 10.7647 4.8286 11.2335 5.09775C11.4633 4.88641 11.7347 4.72532 12.0302 4.62479C12.3258 4.52425 12.6391 4.48648 12.9501 4.51388C13.2611 4.54129 13.563 4.63327 13.8364 4.78394C14.1099 4.93461 14.3489 5.14067 14.5382 5.38894C14.7275 5.63721 14.8629 5.92225 14.9358 6.22582C15.0087 6.52939 15.0175 6.84484 14.9615 7.152C14.9056 7.45915 14.7863 7.75127 14.611 8.00968C14.4358 8.26809 14.2087 8.48711 13.944 8.65275C13.8254 8.72669 13.7297 8.83233 13.6679 8.95775C13.6061 9.08316 13.5806 9.22335 13.5943 9.3625C13.6079 9.50164 13.6602 9.63421 13.7452 9.74522C13.8302 9.85623 13.9445 9.94127 14.0753 9.99075C14.7864 10.2626 15.3986 10.7433 15.8314 11.3697C16.2641 11.996 16.4972 12.7387 16.5 13.5C16.5 13.5428 16.494 13.5833 16.4925 13.6253C16.9801 13.1902 17.429 12.7137 17.8343 12.201Z" fill="#707070"/>
<path d="M14.2154 15.213C14.1339 14.4433 13.8845 13.7009 13.4847 13.0382C13.0849 12.3754 12.5445 11.8085 11.9017 11.3775C12.4531 10.7082 12.7532 9.86718 12.7499 9C12.7496 8.39916 12.6049 7.8072 12.328 7.27397C12.0511 6.74074 11.6501 6.28185 11.1588 5.93594C10.6676 5.59003 10.1004 5.36723 9.50501 5.28631C8.90965 5.20538 8.30356 5.2687 7.73778 5.47092C7.172 5.67314 6.66309 6.00836 6.25391 6.44833C5.84473 6.88831 5.54727 7.42016 5.38656 7.9991C5.22585 8.57805 5.2066 9.18713 5.33044 9.77507C5.45429 10.363 5.71759 10.9126 6.09817 11.3775C5.45533 11.8085 4.91494 12.3754 4.51514 13.0382C4.11535 13.7009 3.86591 14.4433 3.78442 15.213C4.26053 15.4604 4.7538 15.6732 5.26042 15.8497C5.25892 15.816 5.24992 15.7845 5.24992 15.75C5.25306 14.9889 5.48632 14.2465 5.91906 13.6203C6.3518 12.9942 6.9638 12.5135 7.67467 12.2415C7.80563 12.1921 7.92015 12.1071 8.00529 11.996C8.09043 11.8849 8.14279 11.7522 8.15645 11.6129C8.1701 11.4736 8.14451 11.3333 8.08256 11.2078C8.02062 11.0823 7.92479 10.9766 7.80592 10.9027C7.48158 10.7027 7.2141 10.4226 7.02918 10.0894C6.84425 9.75622 6.74809 9.38107 6.74992 9C6.74992 8.40326 6.98698 7.83096 7.40893 7.40901C7.83089 6.98705 8.40319 6.75 8.99992 6.75C9.59666 6.75 10.169 6.98705 10.5909 7.40901C11.0129 7.83096 11.2499 8.40326 11.2499 9C11.2518 9.38107 11.1556 9.75622 10.9707 10.0894C10.7857 10.4226 10.5183 10.7027 10.1939 10.9027C10.0751 10.9766 9.97923 11.0823 9.91728 11.2078C9.85534 11.3333 9.82975 11.4736 9.8434 11.6129C9.85706 11.7522 9.90942 11.8849 9.99456 11.996C10.0797 12.1071 10.1942 12.1921 10.3252 12.2415C11.0361 12.5135 11.648 12.9942 12.0808 13.6203C12.5135 14.2465 12.7468 14.9889 12.7499 15.75C12.7499 15.7845 12.7409 15.816 12.7402 15.8497C13.2465 15.6731 13.7396 15.4603 14.2154 15.213Z" fill="#707070"/>
</svg>
