<svg width="32" height="32" viewBox="0 0 32 32" fill="none" xmlns="http://www.w3.org/2000/svg">
<g clipPath="url(#clip0_84_2064)">
<path d="M25.0435 0H6.95652C3.11455 0 0 3.11455 0 6.95652V25.0435C0 28.8854 3.11455 32 6.95652 32H25.0435C28.8854 32 32 28.8854 32 25.0435V6.95652C32 3.11455 28.8854 0 25.0435 0Z" fill="#2d2d2d"/>
<path d="M16.0001 5.56522C22.5874 5.56522 28.0679 10.0638 29.2175 16C28.0691 21.9363 22.5874 26.4348 16.0001 26.4348C9.41279 26.4348 3.93232 21.9363 2.78271 16C3.9311 10.0638 9.41279 5.56522 16.0001 5.56522ZM16.0001 24.1159C18.4917 24.1155 20.9093 23.3123 22.8573 21.8379C24.8051 20.3635 26.168 18.3053 26.7229 16C26.166 13.6966 24.8022 11.6406 22.8545 10.1681C20.9068 8.69571 18.4903 7.89394 16.0001 7.89394C13.5099 7.89394 11.0934 8.69571 9.14571 10.1681C7.19795 11.6406 5.83419 13.6966 5.27739 16C5.83215 18.3053 7.19504 20.3635 9.14298 21.8379C11.0909 23.3123 13.5085 24.1155 16.0001 24.1159ZM16.0001 21.2174C14.542 21.2174 13.1437 20.6677 12.1127 19.6892C11.0817 18.7108 10.5025 17.3838 10.5025 16C10.5025 14.6162 11.0817 13.2892 12.1127 12.3107C13.1437 11.3323 14.542 10.7826 16.0001 10.7826C17.4582 10.7826 18.8565 11.3323 19.8874 12.3107C20.9185 13.2892 21.4977 14.6162 21.4977 16C21.4977 17.3838 20.9185 18.7108 19.8874 19.6892C18.8565 20.6677 17.4582 21.2174 16.0001 21.2174ZM16.0001 18.8985C16.8101 18.8985 17.587 18.5931 18.1597 18.0495C18.7325 17.5059 19.0543 16.7687 19.0543 16C19.0543 15.2313 18.7325 14.4941 18.1597 13.9505C17.587 13.4068 16.8101 13.1015 16.0001 13.1015C15.1901 13.1015 14.4132 13.4068 13.8405 13.9505C13.2677 14.4941 12.9459 15.2313 12.9459 16C12.9459 16.7687 13.2677 17.5059 13.8405 18.0495C14.4132 18.5931 15.1901 18.8985 16.0001 18.8985Z" fill="#2fdbbc"/>
</g>
<defs>
<clipPath id="clip0_84_2064">
<rect width="32" height="32" fill="#2fdbbc"/>
</clipPath>
</defs>
</svg>
