<svg width="32" height="32" viewBox="0 0 32 32" fill="none" xmlns="http://www.w3.org/2000/svg">
<g clipPath="url(#clip0_84_2060)">
<path d="M25.0435 0H6.95652C3.11454 0 0 3.11454 0 6.95652V25.0435C0 28.8855 3.11454 32 6.95652 32H25.0435C28.8855 32 32 28.8855 32 25.0435V6.95652C32 3.11454 28.8855 0 25.0435 0Z" fill="#2d2d2d"/>
<path d="M22.087 8.69565H28.174V11.1304H25.7392V26.9565C25.7392 27.2794 25.6109 27.589 25.3826 27.8173C25.1543 28.0456 24.8447 28.1739 24.5218 28.1739H7.47835C7.15548 28.1739 6.84583 28.0456 6.61752 27.8173C6.38922 27.589 6.26095 27.2794 6.26095 26.9565V11.1304H3.82617V8.69565H9.91313V5.04348C9.91313 4.72061 10.0414 4.41096 10.2697 4.18265C10.498 3.95435 10.8077 3.82609 11.1305 3.82609H20.8696C21.1926 3.82609 21.5021 3.95435 21.7304 4.18265C21.9588 4.41096 22.087 4.72061 22.087 5.04348V8.69565ZM23.3044 11.1304H8.69574V25.7391H23.3044V11.1304ZM17.7214 18.4348L19.8739 20.5871L18.1524 22.3085L16.0001 20.1561L13.8477 22.3085L12.1263 20.5871L14.2788 18.4348L12.1263 16.2824L13.8477 14.561L16.0001 16.7135L18.1524 14.561L19.8739 16.2824L17.7214 18.4348ZM12.3479 6.26087V8.69565H19.6523V6.26087H12.3479Z" fill="#2fdbbc"/>
</g>
<defs>
<clipPath id="clip0_84_2060">
<rect width="32" height="32" fill="white"/>
</clipPath>
</defs>
</svg>
