<svg width="11" height="13" viewBox="0 0 11 13" fill="none" xmlns="http://www.w3.org/2000/svg">
<path d="M5.5 13L1.61089 9.19236C0.841709 8.43929 0.317892 7.47981 0.105678 6.43527C-0.106535 5.39073 0.00238752 4.30803 0.418671 3.3241C0.834955 2.34016 1.5399 1.49918 2.44437 0.907494C3.34884 0.31581 4.41221 0 5.5 0C6.58779 0 7.65116 0.31581 8.55563 0.907494C9.4601 1.49918 10.165 2.34016 10.5813 3.3241C10.9976 4.30803 11.1065 5.39073 10.8943 6.43527C10.6821 7.47981 10.1583 8.43929 9.38911 9.19236L5.5 13ZM8.525 8.34636C9.12321 7.76061 9.53059 7.01436 9.69561 6.20194C9.86064 5.38953 9.7759 4.54745 9.45211 3.78219C9.12832 3.01693 8.58003 2.36286 7.87656 1.90267C7.17309 1.44249 6.34605 1.19687 5.5 1.19687C4.65395 1.19687 3.82691 1.44249 3.12344 1.90267C2.41997 2.36286 1.87168 3.01693 1.54789 3.78219C1.2241 4.54745 1.13937 5.38953 1.30439 6.20194C1.46941 7.01436 1.87679 7.76061 2.475 8.34636L5.5 11.308L8.525 8.34636ZM5.5 6.58135C5.17585 6.58135 4.86497 6.45527 4.63576 6.23087C4.40655 6.00646 4.27778 5.70209 4.27778 5.38473C4.27778 5.06737 4.40655 4.763 4.63576 4.53859C4.86497 4.31418 5.17585 4.18811 5.5 4.18811C5.82415 4.18811 6.13503 4.31418 6.36424 4.53859C6.59345 4.763 6.72222 5.06737 6.72222 5.38473C6.72222 5.70209 6.59345 6.00646 6.36424 6.23087C6.13503 6.45527 5.82415 6.58135 5.5 6.58135Z" fill="#707070"/>
</svg>
