<svg width="22" height="22" viewBox="0 0 22 22" fill="none" xmlns="http://www.w3.org/2000/svg">
<g clip-path="url(#clip0_56_1740)">
<path d="M18.3333 20.1667H16.5V18.3333C16.5 17.604 16.2103 16.9045 15.6945 16.3888C15.1788 15.8731 14.4793 15.5833 13.75 15.5833H8.24999C7.52064 15.5833 6.82117 15.8731 6.30545 16.3888C5.78972 16.9045 5.49999 17.604 5.49999 18.3333V20.1667H3.66666V18.3333C3.66666 17.1177 4.14954 15.952 5.00908 15.0924C5.86863 14.2329 7.03441 13.75 8.24999 13.75H13.75C14.9656 13.75 16.1314 14.2329 16.9909 15.0924C17.8504 15.952 18.3333 17.1177 18.3333 18.3333V20.1667ZM11 11.9167C10.2777 11.9167 9.56252 11.7744 8.89523 11.498C8.22794 11.2216 7.62162 10.8165 7.1109 10.3057C6.60018 9.79502 6.19505 9.18871 5.91865 8.52142C5.64225 7.85413 5.49999 7.13893 5.49999 6.41666C5.49999 5.69439 5.64225 4.97919 5.91865 4.3119C6.19505 3.64461 6.60018 3.03829 7.1109 2.52757C7.62162 2.01685 8.22794 1.61172 8.89523 1.33532C9.56252 1.05892 10.2777 0.916656 11 0.916656C12.4587 0.916657 13.8576 1.49612 14.8891 2.52757C15.9205 3.55902 16.5 4.95797 16.5 6.41666C16.5 7.87535 15.9205 9.27429 14.8891 10.3057C13.8576 11.3372 12.4587 11.9167 11 11.9167ZM11 10.0833C11.9724 10.0833 12.9051 9.69702 13.5927 9.00938C14.2803 8.32175 14.6667 7.38912 14.6667 6.41666C14.6667 5.4442 14.2803 4.51157 13.5927 3.82393C12.9051 3.1363 11.9724 2.74999 11 2.74999C10.0275 2.74999 9.0949 3.1363 8.40726 3.82393C7.71963 4.51157 7.33332 5.4442 7.33332 6.41666C7.33332 7.38912 7.71963 8.32175 8.40726 9.00938C9.0949 9.69702 10.0275 10.0833 11 10.0833Z" fill="white"/>
</g>
<defs>
<clipPath id="clip0_56_1740">
<rect width="22" height="22" fill="white"/>
</clipPath>
</defs>
</svg>
