<svg width="22" height="22" viewBox="0 0 22 22" fill="none" xmlns="http://www.w3.org/2000/svg">
<g clip-path="url(#clip0_56_1737)">
<path d="M10.0833 1.83334C14.6373 1.83334 18.3333 5.52934 18.3333 10.0833C18.3333 14.6373 14.6373 18.3333 10.0833 18.3333C5.52934 18.3333 1.83334 14.6373 1.83334 10.0833C1.83334 5.52934 5.52934 1.83334 10.0833 1.83334ZM10.0833 16.5C13.6281 16.5 16.5 13.6281 16.5 10.0833C16.5 6.53768 13.6281 3.66668 10.0833 3.66668C6.53768 3.66668 3.66668 6.53768 3.66668 10.0833C3.66668 13.6281 6.53768 16.5 10.0833 16.5ZM17.8613 16.5651L20.4545 19.1574L19.1574 20.4545L16.5651 17.8613L17.8613 16.5651Z" fill="white"/>
</g>
<defs>
<clipPath id="clip0_56_1737">
<rect width="22" height="22" fill="white"/>
</clipPath>
</defs>
</svg>
